<mxfile host="app.diagrams.net" modified="2024-05-17T06:26:05.443Z" agent="Mozilla/5.0 (Windows NT 10.0; Win64; x64) AppleWebKit/537.36 (KHTML, like Gecko) Chrome/124.0.0.0 Safari/537.36 Edg/124.0.0.0" version="24.4.3" etag="2V6h2etLFC4Cjvl2tBRY" type="device">
  <diagram id="E_soCZdwU5kFe0LfVomH" name="第 1 页">
    <mxGraphModel dx="797" dy="-386" grid="0" gridSize="10" guides="1" tooltips="1" connect="1" arrows="1" fold="1" page="1" pageScale="1" pageWidth="600" pageHeight="430" math="0" shadow="0">
      <root>
        <mxCell id="0" />
        <mxCell id="1" parent="0" />
        <mxCell id="127" value="" style="shape=table;html=1;whiteSpace=wrap;startSize=0;container=1;collapsible=0;childLayout=tableLayout;direction=east;fontFamily=Times New Roman;" parent="1" vertex="1">
          <mxGeometry x="53.859999999999985" y="1025.3899999999999" width="79" height="200" as="geometry" />
        </mxCell>
        <mxCell id="C4AZiwXbv_r8diAMs2qV-752" style="shape=tableRow;horizontal=0;startSize=0;swimlaneHead=0;swimlaneBody=0;top=0;left=0;bottom=0;right=0;collapsible=0;dropTarget=0;fillColor=none;points=[[0,0.5],[1,0.5]];portConstraint=eastwest;" parent="127" vertex="1">
          <mxGeometry width="79" height="20" as="geometry" />
        </mxCell>
        <mxCell id="C4AZiwXbv_r8diAMs2qV-753" value="&lt;font data-font-src=&quot;https://fonts.googleapis.com/css?family=Linux+Libertine&quot; face=&quot;Linux Libertine&quot;&gt;edge in&lt;/font&gt;" style="shape=partialRectangle;html=1;whiteSpace=wrap;connectable=0;fillColor=none;top=0;left=0;bottom=0;right=0;overflow=hidden;rowspan=1;colspan=2;" parent="C4AZiwXbv_r8diAMs2qV-752" vertex="1">
          <mxGeometry width="79" height="20" as="geometry">
            <mxRectangle width="37" height="20" as="alternateBounds" />
          </mxGeometry>
        </mxCell>
        <mxCell id="C4AZiwXbv_r8diAMs2qV-754" style="shape=partialRectangle;html=1;whiteSpace=wrap;connectable=0;fillColor=none;top=0;left=0;bottom=0;right=0;overflow=hidden;" parent="C4AZiwXbv_r8diAMs2qV-752" vertex="1" visible="0">
          <mxGeometry x="37" width="42" height="20" as="geometry">
            <mxRectangle width="42" height="20" as="alternateBounds" />
          </mxGeometry>
        </mxCell>
        <mxCell id="128" style="shape=tableRow;horizontal=0;startSize=0;swimlaneHead=0;swimlaneBody=0;top=0;left=0;bottom=0;right=0;collapsible=0;dropTarget=0;fillColor=none;points=[[0,0.5],[1,0.5]];portConstraint=eastwest;" parent="127" vertex="1">
          <mxGeometry y="20" width="79" height="20" as="geometry" />
        </mxCell>
        <mxCell id="400" value="&lt;font data-font-src=&quot;https://fonts.googleapis.com/css?family=Linux+Libertine&quot; face=&quot;Linux Libertine&quot;&gt;src&lt;/font&gt;" style="shape=partialRectangle;html=1;whiteSpace=wrap;connectable=0;fillColor=none;top=0;left=0;bottom=0;right=0;overflow=hidden;" parent="128" vertex="1">
          <mxGeometry width="37" height="20" as="geometry">
            <mxRectangle width="37" height="20" as="alternateBounds" />
          </mxGeometry>
        </mxCell>
        <mxCell id="130" value="&lt;font data-font-src=&quot;https://fonts.googleapis.com/css?family=Linux+Libertine&quot; face=&quot;Linux Libertine&quot;&gt;value&lt;/font&gt;" style="shape=partialRectangle;html=1;whiteSpace=wrap;connectable=0;fillColor=none;top=0;left=0;bottom=0;right=0;overflow=hidden;" parent="128" vertex="1">
          <mxGeometry x="37" width="42" height="20" as="geometry">
            <mxRectangle width="42" height="20" as="alternateBounds" />
          </mxGeometry>
        </mxCell>
        <mxCell id="131" style="shape=tableRow;horizontal=0;startSize=0;swimlaneHead=0;swimlaneBody=0;top=0;left=0;bottom=0;right=0;collapsible=0;dropTarget=0;fillColor=none;points=[[0,0.5],[1,0.5]];portConstraint=eastwest;" parent="127" vertex="1">
          <mxGeometry y="40" width="79" height="20" as="geometry" />
        </mxCell>
        <mxCell id="401" value="&lt;font face=&quot;Times New Roman&quot;&gt;31&lt;/font&gt;" style="shape=partialRectangle;html=1;whiteSpace=wrap;connectable=0;fillColor=none;top=0;left=0;bottom=0;right=0;overflow=hidden;gradientColor=#ffd966;strokeColor=#d6b656;" parent="131" vertex="1">
          <mxGeometry width="37" height="20" as="geometry">
            <mxRectangle width="37" height="20" as="alternateBounds" />
          </mxGeometry>
        </mxCell>
        <mxCell id="133" value="" style="shape=partialRectangle;html=1;whiteSpace=wrap;connectable=0;fillColor=none;top=0;left=0;bottom=0;right=0;overflow=hidden;gradientColor=#ffd966;strokeColor=#d6b656;" parent="131" vertex="1">
          <mxGeometry x="37" width="42" height="20" as="geometry">
            <mxRectangle width="42" height="20" as="alternateBounds" />
          </mxGeometry>
        </mxCell>
        <mxCell id="134" style="shape=tableRow;horizontal=0;startSize=0;swimlaneHead=0;swimlaneBody=0;top=0;left=0;bottom=0;right=0;collapsible=0;dropTarget=0;fillColor=none;points=[[0,0.5],[1,0.5]];portConstraint=eastwest;" parent="127" vertex="1">
          <mxGeometry y="60" width="79" height="20" as="geometry" />
        </mxCell>
        <mxCell id="402" value="&lt;font face=&quot;Times New Roman&quot;&gt;19&lt;/font&gt;" style="shape=partialRectangle;html=1;whiteSpace=wrap;connectable=0;fillColor=none;top=0;left=0;bottom=0;right=0;overflow=hidden;" parent="134" vertex="1">
          <mxGeometry width="37" height="20" as="geometry">
            <mxRectangle width="37" height="20" as="alternateBounds" />
          </mxGeometry>
        </mxCell>
        <mxCell id="136" value="" style="shape=partialRectangle;html=1;whiteSpace=wrap;connectable=0;fillColor=none;top=0;left=0;bottom=0;right=0;overflow=hidden;" parent="134" vertex="1">
          <mxGeometry x="37" width="42" height="20" as="geometry">
            <mxRectangle width="42" height="20" as="alternateBounds" />
          </mxGeometry>
        </mxCell>
        <mxCell id="137" style="shape=tableRow;horizontal=0;startSize=0;swimlaneHead=0;swimlaneBody=0;top=0;left=0;bottom=0;right=0;collapsible=0;dropTarget=0;fillColor=#cce5ff;points=[[0,0.5],[1,0.5]];portConstraint=eastwest;strokeColor=#36393d;" parent="127" vertex="1">
          <mxGeometry y="80" width="79" height="20" as="geometry" />
        </mxCell>
        <mxCell id="403" value="1" style="shape=partialRectangle;html=1;whiteSpace=wrap;connectable=0;fillColor=#cce5ff;top=0;left=0;bottom=0;right=0;overflow=hidden;fontFamily=Times New Roman;strokeColor=#36393d;" parent="137" vertex="1">
          <mxGeometry width="37" height="20" as="geometry">
            <mxRectangle width="37" height="20" as="alternateBounds" />
          </mxGeometry>
        </mxCell>
        <mxCell id="139" value="&lt;font face=&quot;Times New Roman&quot;&gt;3&lt;/font&gt;" style="shape=partialRectangle;html=1;whiteSpace=wrap;connectable=0;fillColor=none;top=0;left=0;bottom=0;right=0;overflow=hidden;" parent="137" vertex="1">
          <mxGeometry x="37" width="42" height="20" as="geometry">
            <mxRectangle width="42" height="20" as="alternateBounds" />
          </mxGeometry>
        </mxCell>
        <mxCell id="140" style="shape=tableRow;horizontal=0;startSize=0;swimlaneHead=0;swimlaneBody=0;top=0;left=0;bottom=0;right=0;collapsible=0;dropTarget=0;fillColor=none;points=[[0,0.5],[1,0.5]];portConstraint=eastwest;" parent="127" vertex="1">
          <mxGeometry y="100" width="79" height="20" as="geometry" />
        </mxCell>
        <mxCell id="404" value="&lt;font face=&quot;Times New Roman&quot;&gt;22&lt;/font&gt;" style="shape=partialRectangle;html=1;whiteSpace=wrap;connectable=0;fillColor=none;top=0;left=0;bottom=0;right=0;overflow=hidden;" parent="140" vertex="1">
          <mxGeometry width="37" height="20" as="geometry">
            <mxRectangle width="37" height="20" as="alternateBounds" />
          </mxGeometry>
        </mxCell>
        <mxCell id="142" value="" style="shape=partialRectangle;html=1;whiteSpace=wrap;connectable=0;fillColor=none;top=0;left=0;bottom=0;right=0;overflow=hidden;" parent="140" vertex="1">
          <mxGeometry x="37" width="42" height="20" as="geometry">
            <mxRectangle width="42" height="20" as="alternateBounds" />
          </mxGeometry>
        </mxCell>
        <mxCell id="143" style="shape=tableRow;horizontal=0;startSize=0;swimlaneHead=0;swimlaneBody=0;top=0;left=0;bottom=0;right=0;collapsible=0;dropTarget=0;fillColor=none;points=[[0,0.5],[1,0.5]];portConstraint=eastwest;" parent="127" vertex="1">
          <mxGeometry y="120" width="79" height="20" as="geometry" />
        </mxCell>
        <mxCell id="405" value="&lt;font face=&quot;Times New Roman&quot;&gt;7&lt;/font&gt;" style="shape=partialRectangle;html=1;whiteSpace=wrap;connectable=0;fillColor=#ffcccc;top=0;left=0;bottom=0;right=0;overflow=hidden;strokeColor=#36393d;" parent="143" vertex="1">
          <mxGeometry width="37" height="20" as="geometry">
            <mxRectangle width="37" height="20" as="alternateBounds" />
          </mxGeometry>
        </mxCell>
        <mxCell id="145" value="&lt;font face=&quot;Times New Roman&quot;&gt;62&lt;/font&gt;" style="shape=partialRectangle;html=1;whiteSpace=wrap;connectable=0;fillColor=#ffcccc;top=0;left=0;bottom=0;right=0;overflow=hidden;strokeColor=#36393d;" parent="143" vertex="1">
          <mxGeometry x="37" width="42" height="20" as="geometry">
            <mxRectangle width="42" height="20" as="alternateBounds" />
          </mxGeometry>
        </mxCell>
        <mxCell id="146" style="shape=tableRow;horizontal=0;startSize=0;swimlaneHead=0;swimlaneBody=0;top=0;left=0;bottom=0;right=0;collapsible=0;dropTarget=0;fillColor=none;points=[[0,0.5],[1,0.5]];portConstraint=eastwest;" parent="127" vertex="1">
          <mxGeometry y="140" width="79" height="20" as="geometry" />
        </mxCell>
        <mxCell id="406" value="&lt;font face=&quot;Times New Roman&quot;&gt;19&lt;/font&gt;" style="shape=partialRectangle;html=1;whiteSpace=wrap;connectable=0;fillColor=none;top=0;left=0;bottom=0;right=0;overflow=hidden;" parent="146" vertex="1">
          <mxGeometry width="37" height="20" as="geometry">
            <mxRectangle width="37" height="20" as="alternateBounds" />
          </mxGeometry>
        </mxCell>
        <mxCell id="148" value="" style="shape=partialRectangle;html=1;whiteSpace=wrap;connectable=0;fillColor=none;top=0;left=0;bottom=0;right=0;overflow=hidden;" parent="146" vertex="1">
          <mxGeometry x="37" width="42" height="20" as="geometry">
            <mxRectangle width="42" height="20" as="alternateBounds" />
          </mxGeometry>
        </mxCell>
        <mxCell id="149" style="shape=tableRow;horizontal=0;startSize=0;swimlaneHead=0;swimlaneBody=0;top=0;left=0;bottom=0;right=0;collapsible=0;dropTarget=0;fillColor=none;points=[[0,0.5],[1,0.5]];portConstraint=eastwest;" parent="127" vertex="1">
          <mxGeometry y="160" width="79" height="20" as="geometry" />
        </mxCell>
        <mxCell id="407" value="1" style="shape=partialRectangle;html=1;whiteSpace=wrap;connectable=0;fillColor=#cce5ff;top=0;left=0;bottom=0;right=0;overflow=hidden;fontFamily=Times New Roman;strokeColor=#36393d;" parent="149" vertex="1">
          <mxGeometry width="37" height="20" as="geometry">
            <mxRectangle width="37" height="20" as="alternateBounds" />
          </mxGeometry>
        </mxCell>
        <mxCell id="151" value="&lt;font face=&quot;Times New Roman&quot;&gt;29&lt;/font&gt;" style="shape=partialRectangle;html=1;whiteSpace=wrap;connectable=0;fillColor=#cce5ff;top=0;left=0;bottom=0;right=0;overflow=hidden;strokeColor=#36393d;" parent="149" vertex="1">
          <mxGeometry x="37" width="42" height="20" as="geometry">
            <mxRectangle width="42" height="20" as="alternateBounds" />
          </mxGeometry>
        </mxCell>
        <mxCell id="152" style="shape=tableRow;horizontal=0;startSize=0;swimlaneHead=0;swimlaneBody=0;top=0;left=0;bottom=0;right=0;collapsible=0;dropTarget=0;fillColor=none;points=[[0,0.5],[1,0.5]];portConstraint=eastwest;" parent="127" vertex="1">
          <mxGeometry y="180" width="79" height="20" as="geometry" />
        </mxCell>
        <mxCell id="408" value="&lt;font face=&quot;Times New Roman&quot;&gt;7&lt;/font&gt;" style="shape=partialRectangle;html=1;whiteSpace=wrap;connectable=0;fillColor=#ffcccc;top=0;left=0;bottom=0;right=0;overflow=hidden;strokeColor=#36393d;" parent="152" vertex="1">
          <mxGeometry width="37" height="20" as="geometry">
            <mxRectangle width="37" height="20" as="alternateBounds" />
          </mxGeometry>
        </mxCell>
        <mxCell id="154" value="&lt;font face=&quot;Times New Roman&quot;&gt;12&lt;/font&gt;" style="shape=partialRectangle;html=1;whiteSpace=wrap;connectable=0;fillColor=#ffcccc;top=0;left=0;bottom=0;right=0;overflow=hidden;strokeColor=#36393d;" parent="152" vertex="1">
          <mxGeometry x="37" width="42" height="20" as="geometry">
            <mxRectangle width="42" height="20" as="alternateBounds" />
          </mxGeometry>
        </mxCell>
        <mxCell id="606" style="edgeStyle=orthogonalEdgeStyle;html=1;strokeColor=#000000;fontFamily=Times New Roman;fontColor=#000000;startArrow=blockThin;startFill=1;endArrow=blockThin;endFill=1;entryX=0.998;entryY=0.955;entryDx=0;entryDy=0;entryPerimeter=0;exitX=1.008;exitY=0.578;exitDx=0;exitDy=0;exitPerimeter=0;" parent="127" source="143" target="127" edge="1">
          <mxGeometry relative="1" as="geometry">
            <mxPoint x="142.0052604675294" y="171.33332316080737" as="targetPoint" />
            <Array as="points">
              <mxPoint x="98" y="132" />
              <mxPoint x="98" y="191" />
            </Array>
            <mxPoint x="79" y="130" as="sourcePoint" />
          </mxGeometry>
        </mxCell>
        <mxCell id="607" value="&lt;font color=&quot;#ff0000&quot; style=&quot;&quot; data-font-src=&quot;https://fonts.googleapis.com/css?family=Linux+Libertine&quot; face=&quot;Linux Libertine&quot;&gt;Send to dynamic adder&lt;/font&gt;" style="text;html=1;strokeColor=none;fillColor=none;align=center;verticalAlign=middle;whiteSpace=wrap;rounded=0;fontColor=#000000;fontFamily=Times New Roman;" parent="1" vertex="1">
          <mxGeometry x="309" y="1241.62" width="131" height="30" as="geometry" />
        </mxCell>
        <mxCell id="C4AZiwXbv_r8diAMs2qV-647" value="" style="shape=flexArrow;endArrow=classic;html=1;rounded=0;endWidth=9.166666666666666;endSize=3.7007999999999996;width=6.24;" parent="1" edge="1">
          <mxGeometry width="50" height="50" relative="1" as="geometry">
            <mxPoint x="140.85999999999999" y="1124.62" as="sourcePoint" />
            <mxPoint x="170.85999999999999" y="1124.34" as="targetPoint" />
          </mxGeometry>
        </mxCell>
        <mxCell id="C4AZiwXbv_r8diAMs2qV-719" value="" style="shape=table;html=1;whiteSpace=wrap;startSize=0;container=1;collapsible=0;childLayout=tableLayout;direction=east;fontFamily=Times New Roman;" parent="1" vertex="1">
          <mxGeometry x="174.85999999999999" y="1025.34" width="101" height="200" as="geometry" />
        </mxCell>
        <mxCell id="C4AZiwXbv_r8diAMs2qV-749" style="shape=tableRow;horizontal=0;startSize=0;swimlaneHead=0;swimlaneBody=0;top=0;left=0;bottom=0;right=0;collapsible=0;dropTarget=0;fillColor=none;points=[[0,0.5],[1,0.5]];portConstraint=eastwest;" parent="C4AZiwXbv_r8diAMs2qV-719" vertex="1">
          <mxGeometry width="101" height="20" as="geometry" />
        </mxCell>
        <mxCell id="C4AZiwXbv_r8diAMs2qV-750" value="&lt;font data-font-src=&quot;https://fonts.googleapis.com/css?family=Linux+Libertine&quot; face=&quot;Linux Libertine&quot;&gt;Intra-haz table&lt;/font&gt;" style="shape=partialRectangle;html=1;whiteSpace=wrap;connectable=0;fillColor=none;top=0;left=0;bottom=0;right=0;overflow=hidden;rowspan=1;colspan=3;" parent="C4AZiwXbv_r8diAMs2qV-749" vertex="1">
          <mxGeometry width="101" height="20" as="geometry">
            <mxRectangle width="34" height="20" as="alternateBounds" />
          </mxGeometry>
        </mxCell>
        <mxCell id="C4AZiwXbv_r8diAMs2qV-751" style="shape=partialRectangle;html=1;whiteSpace=wrap;connectable=0;fillColor=none;top=0;left=0;bottom=0;right=0;overflow=hidden;" parent="C4AZiwXbv_r8diAMs2qV-749" vertex="1" visible="0">
          <mxGeometry x="34" width="33" height="20" as="geometry">
            <mxRectangle width="33" height="20" as="alternateBounds" />
          </mxGeometry>
        </mxCell>
        <mxCell id="1119" style="shape=partialRectangle;html=1;whiteSpace=wrap;connectable=0;fillColor=none;top=0;left=0;bottom=0;right=0;overflow=hidden;" parent="C4AZiwXbv_r8diAMs2qV-749" vertex="1" visible="0">
          <mxGeometry x="67" width="34" height="20" as="geometry">
            <mxRectangle width="34" height="20" as="alternateBounds" />
          </mxGeometry>
        </mxCell>
        <mxCell id="C4AZiwXbv_r8diAMs2qV-720" style="shape=tableRow;horizontal=0;startSize=0;swimlaneHead=0;swimlaneBody=0;top=0;left=0;bottom=0;right=0;collapsible=0;dropTarget=0;fillColor=none;points=[[0,0.5],[1,0.5]];portConstraint=eastwest;" parent="C4AZiwXbv_r8diAMs2qV-719" vertex="1">
          <mxGeometry y="20" width="101" height="20" as="geometry" />
        </mxCell>
        <mxCell id="C4AZiwXbv_r8diAMs2qV-721" value="&lt;font data-font-src=&quot;https://fonts.googleapis.com/css?family=Linux+Libertine&quot; face=&quot;Linux Libertine&quot;&gt;src&lt;/font&gt;" style="shape=partialRectangle;html=1;whiteSpace=wrap;connectable=0;fillColor=none;top=0;left=0;bottom=0;right=0;overflow=hidden;" parent="C4AZiwXbv_r8diAMs2qV-720" vertex="1">
          <mxGeometry width="34" height="20" as="geometry">
            <mxRectangle width="34" height="20" as="alternateBounds" />
          </mxGeometry>
        </mxCell>
        <mxCell id="C4AZiwXbv_r8diAMs2qV-722" value="&lt;font data-font-src=&quot;https://fonts.googleapis.com/css?family=Linux+Libertine&quot; face=&quot;Linux Libertine&quot;&gt;value&lt;/font&gt;" style="shape=partialRectangle;html=1;whiteSpace=wrap;connectable=0;fillColor=none;top=0;left=0;bottom=0;right=0;overflow=hidden;" parent="C4AZiwXbv_r8diAMs2qV-720" vertex="1">
          <mxGeometry x="34" width="33" height="20" as="geometry">
            <mxRectangle width="33" height="20" as="alternateBounds" />
          </mxGeometry>
        </mxCell>
        <mxCell id="1120" value="&lt;font data-font-src=&quot;https://fonts.googleapis.com/css?family=Linux+Libertine&quot; face=&quot;Linux Libertine&quot;&gt;adder&lt;/font&gt;" style="shape=partialRectangle;html=1;whiteSpace=wrap;connectable=0;fillColor=none;top=0;left=0;bottom=0;right=0;overflow=hidden;" parent="C4AZiwXbv_r8diAMs2qV-720" vertex="1">
          <mxGeometry x="67" width="34" height="20" as="geometry">
            <mxRectangle width="34" height="20" as="alternateBounds" />
          </mxGeometry>
        </mxCell>
        <mxCell id="C4AZiwXbv_r8diAMs2qV-723" style="shape=tableRow;horizontal=0;startSize=0;swimlaneHead=0;swimlaneBody=0;top=0;left=0;bottom=0;right=0;collapsible=0;dropTarget=0;fillColor=none;points=[[0,0.5],[1,0.5]];portConstraint=eastwest;" parent="C4AZiwXbv_r8diAMs2qV-719" vertex="1">
          <mxGeometry y="40" width="101" height="20" as="geometry" />
        </mxCell>
        <mxCell id="C4AZiwXbv_r8diAMs2qV-724" value="" style="shape=partialRectangle;html=1;whiteSpace=wrap;connectable=0;fillColor=none;top=0;left=0;bottom=0;right=0;overflow=hidden;gradientColor=#ffd966;strokeColor=#d6b656;" parent="C4AZiwXbv_r8diAMs2qV-723" vertex="1">
          <mxGeometry width="34" height="20" as="geometry">
            <mxRectangle width="34" height="20" as="alternateBounds" />
          </mxGeometry>
        </mxCell>
        <mxCell id="C4AZiwXbv_r8diAMs2qV-725" value="" style="shape=partialRectangle;html=1;whiteSpace=wrap;connectable=0;fillColor=none;top=0;left=0;bottom=0;right=0;overflow=hidden;gradientColor=#ffd966;strokeColor=#d6b656;" parent="C4AZiwXbv_r8diAMs2qV-723" vertex="1">
          <mxGeometry x="34" width="33" height="20" as="geometry">
            <mxRectangle width="33" height="20" as="alternateBounds" />
          </mxGeometry>
        </mxCell>
        <mxCell id="1121" style="shape=partialRectangle;html=1;whiteSpace=wrap;connectable=0;fillColor=none;top=0;left=0;bottom=0;right=0;overflow=hidden;gradientColor=#ffd966;strokeColor=#d6b656;" parent="C4AZiwXbv_r8diAMs2qV-723" vertex="1">
          <mxGeometry x="67" width="34" height="20" as="geometry">
            <mxRectangle width="34" height="20" as="alternateBounds" />
          </mxGeometry>
        </mxCell>
        <mxCell id="C4AZiwXbv_r8diAMs2qV-726" style="shape=tableRow;horizontal=0;startSize=0;swimlaneHead=0;swimlaneBody=0;top=0;left=0;bottom=0;right=0;collapsible=0;dropTarget=0;fillColor=none;points=[[0,0.5],[1,0.5]];portConstraint=eastwest;" parent="C4AZiwXbv_r8diAMs2qV-719" vertex="1">
          <mxGeometry y="60" width="101" height="20" as="geometry" />
        </mxCell>
        <mxCell id="C4AZiwXbv_r8diAMs2qV-727" value="" style="shape=partialRectangle;html=1;whiteSpace=wrap;connectable=0;fillColor=none;top=0;left=0;bottom=0;right=0;overflow=hidden;" parent="C4AZiwXbv_r8diAMs2qV-726" vertex="1">
          <mxGeometry width="34" height="20" as="geometry">
            <mxRectangle width="34" height="20" as="alternateBounds" />
          </mxGeometry>
        </mxCell>
        <mxCell id="C4AZiwXbv_r8diAMs2qV-728" value="" style="shape=partialRectangle;html=1;whiteSpace=wrap;connectable=0;fillColor=none;top=0;left=0;bottom=0;right=0;overflow=hidden;" parent="C4AZiwXbv_r8diAMs2qV-726" vertex="1">
          <mxGeometry x="34" width="33" height="20" as="geometry">
            <mxRectangle width="33" height="20" as="alternateBounds" />
          </mxGeometry>
        </mxCell>
        <mxCell id="1122" style="shape=partialRectangle;html=1;whiteSpace=wrap;connectable=0;fillColor=none;top=0;left=0;bottom=0;right=0;overflow=hidden;" parent="C4AZiwXbv_r8diAMs2qV-726" vertex="1">
          <mxGeometry x="67" width="34" height="20" as="geometry">
            <mxRectangle width="34" height="20" as="alternateBounds" />
          </mxGeometry>
        </mxCell>
        <mxCell id="C4AZiwXbv_r8diAMs2qV-730" style="shape=tableRow;horizontal=0;startSize=0;swimlaneHead=0;swimlaneBody=0;top=0;left=0;bottom=0;right=0;collapsible=0;dropTarget=0;fillColor=#cce5ff;points=[[0,0.5],[1,0.5]];portConstraint=eastwest;strokeColor=#36393d;" parent="C4AZiwXbv_r8diAMs2qV-719" vertex="1">
          <mxGeometry y="80" width="101" height="20" as="geometry" />
        </mxCell>
        <mxCell id="C4AZiwXbv_r8diAMs2qV-731" value="1" style="shape=partialRectangle;html=1;whiteSpace=wrap;connectable=0;fillColor=#cce5ff;top=0;left=0;bottom=0;right=0;overflow=hidden;fontFamily=Times New Roman;strokeColor=#36393d;" parent="C4AZiwXbv_r8diAMs2qV-730" vertex="1">
          <mxGeometry width="34" height="20" as="geometry">
            <mxRectangle width="34" height="20" as="alternateBounds" />
          </mxGeometry>
        </mxCell>
        <mxCell id="C4AZiwXbv_r8diAMs2qV-732" value="&lt;font face=&quot;Times New Roman&quot;&gt;3, 1&lt;/font&gt;" style="shape=partialRectangle;html=1;whiteSpace=wrap;connectable=0;fillColor=none;top=0;left=0;bottom=0;right=0;overflow=hidden;" parent="C4AZiwXbv_r8diAMs2qV-730" vertex="1">
          <mxGeometry x="34" width="33" height="20" as="geometry">
            <mxRectangle width="33" height="20" as="alternateBounds" />
          </mxGeometry>
        </mxCell>
        <mxCell id="1123" value="&lt;font face=&quot;Times New Roman&quot;&gt;1&lt;/font&gt;" style="shape=partialRectangle;html=1;whiteSpace=wrap;connectable=0;fillColor=none;top=0;left=0;bottom=0;right=0;overflow=hidden;" parent="C4AZiwXbv_r8diAMs2qV-730" vertex="1">
          <mxGeometry x="67" width="34" height="20" as="geometry">
            <mxRectangle width="34" height="20" as="alternateBounds" />
          </mxGeometry>
        </mxCell>
        <mxCell id="C4AZiwXbv_r8diAMs2qV-733" style="shape=tableRow;horizontal=0;startSize=0;swimlaneHead=0;swimlaneBody=0;top=0;left=0;bottom=0;right=0;collapsible=0;dropTarget=0;fillColor=none;points=[[0,0.5],[1,0.5]];portConstraint=eastwest;" parent="C4AZiwXbv_r8diAMs2qV-719" vertex="1">
          <mxGeometry y="100" width="101" height="20" as="geometry" />
        </mxCell>
        <mxCell id="C4AZiwXbv_r8diAMs2qV-734" value="" style="shape=partialRectangle;html=1;whiteSpace=wrap;connectable=0;fillColor=none;top=0;left=0;bottom=0;right=0;overflow=hidden;" parent="C4AZiwXbv_r8diAMs2qV-733" vertex="1">
          <mxGeometry width="34" height="20" as="geometry">
            <mxRectangle width="34" height="20" as="alternateBounds" />
          </mxGeometry>
        </mxCell>
        <mxCell id="C4AZiwXbv_r8diAMs2qV-735" value="" style="shape=partialRectangle;html=1;whiteSpace=wrap;connectable=0;fillColor=none;top=0;left=0;bottom=0;right=0;overflow=hidden;" parent="C4AZiwXbv_r8diAMs2qV-733" vertex="1">
          <mxGeometry x="34" width="33" height="20" as="geometry">
            <mxRectangle width="33" height="20" as="alternateBounds" />
          </mxGeometry>
        </mxCell>
        <mxCell id="1124" style="shape=partialRectangle;html=1;whiteSpace=wrap;connectable=0;fillColor=none;top=0;left=0;bottom=0;right=0;overflow=hidden;" parent="C4AZiwXbv_r8diAMs2qV-733" vertex="1">
          <mxGeometry x="67" width="34" height="20" as="geometry">
            <mxRectangle width="34" height="20" as="alternateBounds" />
          </mxGeometry>
        </mxCell>
        <mxCell id="C4AZiwXbv_r8diAMs2qV-736" style="shape=tableRow;horizontal=0;startSize=0;swimlaneHead=0;swimlaneBody=0;top=0;left=0;bottom=0;right=0;collapsible=0;dropTarget=0;fillColor=none;points=[[0,0.5],[1,0.5]];portConstraint=eastwest;" parent="C4AZiwXbv_r8diAMs2qV-719" vertex="1">
          <mxGeometry y="120" width="101" height="20" as="geometry" />
        </mxCell>
        <mxCell id="C4AZiwXbv_r8diAMs2qV-737" value="&lt;font data-font-src=&quot;https://fonts.googleapis.com/css?family=Linux+Libertine&quot; face=&quot;Linux Libertine&quot;&gt;7&lt;/font&gt;" style="shape=partialRectangle;html=1;whiteSpace=wrap;connectable=0;fillColor=#FFCCCC;top=0;left=0;bottom=0;right=0;overflow=hidden;strokeColor=#36393d;" parent="C4AZiwXbv_r8diAMs2qV-736" vertex="1">
          <mxGeometry width="34" height="20" as="geometry">
            <mxRectangle width="34" height="20" as="alternateBounds" />
          </mxGeometry>
        </mxCell>
        <mxCell id="C4AZiwXbv_r8diAMs2qV-738" value="&lt;font data-font-src=&quot;https://fonts.googleapis.com/css?family=Linux+Libertine&quot; face=&quot;Linux Libertine&quot;&gt;62,12&lt;/font&gt;" style="shape=partialRectangle;html=1;whiteSpace=wrap;connectable=0;fillColor=#FFCCCC;top=0;left=0;bottom=0;right=0;overflow=hidden;strokeColor=#36393d;" parent="C4AZiwXbv_r8diAMs2qV-736" vertex="1">
          <mxGeometry x="34" width="33" height="20" as="geometry">
            <mxRectangle width="33" height="20" as="alternateBounds" />
          </mxGeometry>
        </mxCell>
        <mxCell id="1125" value="&lt;font data-font-src=&quot;https://fonts.googleapis.com/css?family=Linux+Libertine&quot; face=&quot;Linux Libertine&quot;&gt;2&lt;/font&gt;" style="shape=partialRectangle;html=1;whiteSpace=wrap;connectable=0;fillColor=#FFCCCC;top=0;left=0;bottom=0;right=0;overflow=hidden;strokeColor=#36393d;" parent="C4AZiwXbv_r8diAMs2qV-736" vertex="1">
          <mxGeometry x="67" width="34" height="20" as="geometry">
            <mxRectangle width="34" height="20" as="alternateBounds" />
          </mxGeometry>
        </mxCell>
        <mxCell id="C4AZiwXbv_r8diAMs2qV-739" style="shape=tableRow;horizontal=0;startSize=0;swimlaneHead=0;swimlaneBody=0;top=0;left=0;bottom=0;right=0;collapsible=0;dropTarget=0;fillColor=none;points=[[0,0.5],[1,0.5]];portConstraint=eastwest;" parent="C4AZiwXbv_r8diAMs2qV-719" vertex="1">
          <mxGeometry y="140" width="101" height="20" as="geometry" />
        </mxCell>
        <mxCell id="C4AZiwXbv_r8diAMs2qV-740" value="" style="shape=partialRectangle;html=1;whiteSpace=wrap;connectable=0;fillColor=none;top=0;left=0;bottom=0;right=0;overflow=hidden;" parent="C4AZiwXbv_r8diAMs2qV-739" vertex="1">
          <mxGeometry width="34" height="20" as="geometry">
            <mxRectangle width="34" height="20" as="alternateBounds" />
          </mxGeometry>
        </mxCell>
        <mxCell id="C4AZiwXbv_r8diAMs2qV-741" value="" style="shape=partialRectangle;html=1;whiteSpace=wrap;connectable=0;fillColor=none;top=0;left=0;bottom=0;right=0;overflow=hidden;" parent="C4AZiwXbv_r8diAMs2qV-739" vertex="1">
          <mxGeometry x="34" width="33" height="20" as="geometry">
            <mxRectangle width="33" height="20" as="alternateBounds" />
          </mxGeometry>
        </mxCell>
        <mxCell id="1126" style="shape=partialRectangle;html=1;whiteSpace=wrap;connectable=0;fillColor=none;top=0;left=0;bottom=0;right=0;overflow=hidden;" parent="C4AZiwXbv_r8diAMs2qV-739" vertex="1">
          <mxGeometry x="67" width="34" height="20" as="geometry">
            <mxRectangle width="34" height="20" as="alternateBounds" />
          </mxGeometry>
        </mxCell>
        <mxCell id="C4AZiwXbv_r8diAMs2qV-742" style="shape=tableRow;horizontal=0;startSize=0;swimlaneHead=0;swimlaneBody=0;top=0;left=0;bottom=0;right=0;collapsible=0;dropTarget=0;fillColor=none;points=[[0,0.5],[1,0.5]];portConstraint=eastwest;" parent="C4AZiwXbv_r8diAMs2qV-719" vertex="1">
          <mxGeometry y="160" width="101" height="20" as="geometry" />
        </mxCell>
        <mxCell id="C4AZiwXbv_r8diAMs2qV-743" value="" style="shape=partialRectangle;html=1;whiteSpace=wrap;connectable=0;fillColor=none;top=0;left=0;bottom=0;right=0;overflow=hidden;fontFamily=Times New Roman;strokeColor=#36393d;" parent="C4AZiwXbv_r8diAMs2qV-742" vertex="1">
          <mxGeometry width="34" height="20" as="geometry">
            <mxRectangle width="34" height="20" as="alternateBounds" />
          </mxGeometry>
        </mxCell>
        <mxCell id="C4AZiwXbv_r8diAMs2qV-744" value="" style="shape=partialRectangle;html=1;whiteSpace=wrap;connectable=0;fillColor=none;top=0;left=0;bottom=0;right=0;overflow=hidden;strokeColor=#36393d;" parent="C4AZiwXbv_r8diAMs2qV-742" vertex="1">
          <mxGeometry x="34" width="33" height="20" as="geometry">
            <mxRectangle width="33" height="20" as="alternateBounds" />
          </mxGeometry>
        </mxCell>
        <mxCell id="1127" style="shape=partialRectangle;html=1;whiteSpace=wrap;connectable=0;fillColor=none;top=0;left=0;bottom=0;right=0;overflow=hidden;strokeColor=#36393d;" parent="C4AZiwXbv_r8diAMs2qV-742" vertex="1">
          <mxGeometry x="67" width="34" height="20" as="geometry">
            <mxRectangle width="34" height="20" as="alternateBounds" />
          </mxGeometry>
        </mxCell>
        <mxCell id="C4AZiwXbv_r8diAMs2qV-745" style="shape=tableRow;horizontal=0;startSize=0;swimlaneHead=0;swimlaneBody=0;top=0;left=0;bottom=0;right=0;collapsible=0;dropTarget=0;fillColor=none;points=[[0,0.5],[1,0.5]];portConstraint=eastwest;" parent="C4AZiwXbv_r8diAMs2qV-719" vertex="1">
          <mxGeometry y="180" width="101" height="20" as="geometry" />
        </mxCell>
        <mxCell id="C4AZiwXbv_r8diAMs2qV-746" value="" style="shape=partialRectangle;html=1;whiteSpace=wrap;connectable=0;fillColor=none;top=0;left=0;bottom=0;right=0;overflow=hidden;strokeColor=#36393d;" parent="C4AZiwXbv_r8diAMs2qV-745" vertex="1">
          <mxGeometry width="34" height="20" as="geometry">
            <mxRectangle width="34" height="20" as="alternateBounds" />
          </mxGeometry>
        </mxCell>
        <mxCell id="C4AZiwXbv_r8diAMs2qV-747" value="" style="shape=partialRectangle;html=1;whiteSpace=wrap;connectable=0;fillColor=none;top=0;left=0;bottom=0;right=0;overflow=hidden;strokeColor=#36393d;" parent="C4AZiwXbv_r8diAMs2qV-745" vertex="1">
          <mxGeometry x="34" width="33" height="20" as="geometry">
            <mxRectangle width="33" height="20" as="alternateBounds" />
          </mxGeometry>
        </mxCell>
        <mxCell id="1128" style="shape=partialRectangle;html=1;whiteSpace=wrap;connectable=0;fillColor=none;top=0;left=0;bottom=0;right=0;overflow=hidden;strokeColor=#36393d;" parent="C4AZiwXbv_r8diAMs2qV-745" vertex="1">
          <mxGeometry x="67" width="34" height="20" as="geometry">
            <mxRectangle width="34" height="20" as="alternateBounds" />
          </mxGeometry>
        </mxCell>
        <mxCell id="C4AZiwXbv_r8diAMs2qV-755" value="&lt;font color=&quot;#ff0000&quot;&gt;Record&lt;br&gt;&amp;nbsp;hazard&lt;/font&gt;" style="text;html=1;strokeColor=none;fillColor=none;align=center;verticalAlign=middle;whiteSpace=wrap;rounded=0;fontColor=#000000;fontFamily=Times New Roman;" parent="1" vertex="1">
          <mxGeometry x="135.85999999999999" y="1081.3899999999999" width="37" height="29" as="geometry" />
        </mxCell>
        <mxCell id="898" value="" style="rounded=1;whiteSpace=wrap;html=1;arcSize=12;fillColor=#FFFFCC;" parent="1" vertex="1">
          <mxGeometry x="336.1600000000001" y="1039.6699999999998" width="59.97" height="91" as="geometry" />
        </mxCell>
        <mxCell id="899" style="edgeStyle=none;html=1;entryX=0.137;entryY=0.15;entryDx=0;entryDy=0;entryPerimeter=0;endArrow=none;endFill=0;exitX=0.934;exitY=0.808;exitDx=0;exitDy=0;exitPerimeter=0;" parent="1" source="900" target="903" edge="1">
          <mxGeometry relative="1" as="geometry" />
        </mxCell>
        <mxCell id="900" value="" style="verticalLabelPosition=bottom;shadow=0;dashed=0;align=center;html=1;verticalAlign=top;shape=mxgraph.electrical.abstract.summation_point;strokeWidth=1;fontColor=#FF0000;" parent="1" vertex="1">
          <mxGeometry x="341.4599999999998" y="1042.6699999999998" width="15" height="15" as="geometry" />
        </mxCell>
        <mxCell id="901" style="edgeStyle=none;html=1;entryX=0.901;entryY=0.236;entryDx=0;entryDy=0;entryPerimeter=0;endArrow=none;endFill=0;exitX=0.08;exitY=0.782;exitDx=0;exitDy=0;exitPerimeter=0;strokeColor=#0066CC;" parent="1" source="903" target="904" edge="1">
          <mxGeometry relative="1" as="geometry" />
        </mxCell>
        <mxCell id="902" style="edgeStyle=none;html=1;endArrow=none;endFill=0;entryX=0.215;entryY=0.1;entryDx=0;entryDy=0;entryPerimeter=0;exitX=0.821;exitY=0.943;exitDx=0;exitDy=0;exitPerimeter=0;strokeColor=#0066CC;" parent="1" source="903" target="911" edge="1">
          <mxGeometry relative="1" as="geometry" />
        </mxCell>
        <mxCell id="903" value="" style="verticalLabelPosition=bottom;shadow=0;dashed=0;align=center;html=1;verticalAlign=top;shape=mxgraph.electrical.abstract.summation_point;strokeWidth=1;fontColor=#FF0000;" parent="1" vertex="1">
          <mxGeometry x="360.3599999999999" y="1057.6699999999998" width="15" height="15" as="geometry" />
        </mxCell>
        <mxCell id="904" value="" style="verticalLabelPosition=bottom;shadow=0;dashed=0;align=center;html=1;verticalAlign=top;shape=mxgraph.electrical.abstract.summation_point;strokeWidth=1;fontColor=#FF0000;" parent="1" vertex="1">
          <mxGeometry x="341.4599999999998" y="1069.6699999999998" width="15" height="15" as="geometry" />
        </mxCell>
        <mxCell id="905" style="edgeStyle=none;html=1;entryX=0.097;entryY=0.23;entryDx=0;entryDy=0;entryPerimeter=0;endArrow=none;endFill=0;exitX=0.928;exitY=0.799;exitDx=0;exitDy=0;exitPerimeter=0;" parent="1" source="906" target="910" edge="1">
          <mxGeometry relative="1" as="geometry" />
        </mxCell>
        <mxCell id="906" value="" style="verticalLabelPosition=bottom;shadow=0;dashed=0;align=center;html=1;verticalAlign=top;shape=mxgraph.electrical.abstract.summation_point;strokeWidth=1;fontColor=#FF0000;" parent="1" vertex="1">
          <mxGeometry x="341.4599999999998" y="1088.6499999999999" width="15" height="15" as="geometry" />
        </mxCell>
        <mxCell id="907" value="" style="verticalLabelPosition=bottom;shadow=0;dashed=0;align=center;html=1;verticalAlign=top;shape=mxgraph.electrical.abstract.summation_point;strokeWidth=1;fontColor=#FF0000;" parent="1" vertex="1">
          <mxGeometry x="341.4599999999998" y="1112.6499999999999" width="15" height="15" as="geometry" />
        </mxCell>
        <mxCell id="908" style="edgeStyle=none;html=1;endArrow=none;endFill=0;exitX=0.072;exitY=0.796;exitDx=0;exitDy=0;exitPerimeter=0;strokeColor=#0066CC;" parent="1" source="910" edge="1">
          <mxGeometry relative="1" as="geometry">
            <mxPoint x="355.15999999999985" y="1116.9699999999998" as="targetPoint" />
          </mxGeometry>
        </mxCell>
        <mxCell id="909" style="edgeStyle=none;html=1;endArrow=none;endFill=0;exitX=0.831;exitY=0.136;exitDx=0;exitDy=0;exitPerimeter=0;entryX=0.217;entryY=0.907;entryDx=0;entryDy=0;entryPerimeter=0;strokeColor=#0066CC;" parent="1" source="910" target="911" edge="1">
          <mxGeometry relative="1" as="geometry" />
        </mxCell>
        <mxCell id="910" value="" style="verticalLabelPosition=bottom;shadow=0;dashed=0;align=center;html=1;verticalAlign=top;shape=mxgraph.electrical.abstract.summation_point;strokeWidth=1;fontColor=#FF0000;" parent="1" vertex="1">
          <mxGeometry x="360.3599999999999" y="1100.6499999999999" width="15" height="15" as="geometry" />
        </mxCell>
        <mxCell id="1151" style="edgeStyle=orthogonalEdgeStyle;html=1;strokeColor=#0066CC;fontFamily=Linux Libertine;fontSource=https%3A%2F%2Ffonts.googleapis.com%2Fcss%3Ffamily%3DLinux%2BLibertine;endArrow=blockThin;endFill=1;" parent="1" source="911" edge="1">
          <mxGeometry relative="1" as="geometry">
            <mxPoint x="451.4729150390625" y="1086.4699999999998" as="targetPoint" />
          </mxGeometry>
        </mxCell>
        <mxCell id="911" value="" style="verticalLabelPosition=bottom;shadow=0;dashed=0;align=center;html=1;verticalAlign=top;shape=mxgraph.electrical.abstract.summation_point;strokeWidth=1;fontColor=#FF0000;" parent="1" vertex="1">
          <mxGeometry x="374.15999999999985" y="1078.9699999999998" width="15" height="15" as="geometry" />
        </mxCell>
        <mxCell id="912" value="&lt;span style=&quot;&quot;&gt;&lt;span style=&quot;color: rgb(51, 51, 51); font-size: 12px; font-style: normal; font-variant-ligatures: normal; font-variant-caps: normal; font-weight: 400; letter-spacing: normal; orphans: 2; text-align: center; text-indent: 0px; text-transform: none; widows: 2; word-spacing: 0px; -webkit-text-stroke-width: 0px; text-decoration-thickness: initial; text-decoration-style: initial; text-decoration-color: initial; float: none; display: inline !important;&quot;&gt;&lt;font data-font-src=&quot;https://fonts.googleapis.com/css?family=Linux+Libertine&quot; face=&quot;Linux Libertine&quot;&gt;Dyna Adder 1&lt;/font&gt;&lt;/span&gt;&lt;/span&gt;" style="text;whiteSpace=wrap;html=1;labelBackgroundColor=#FFFFFF;" parent="1" vertex="1">
          <mxGeometry x="329.65" y="1015.0199999999998" width="73" height="24.65" as="geometry" />
        </mxCell>
        <mxCell id="605" style="edgeStyle=orthogonalEdgeStyle;html=1;entryX=0.005;entryY=0.847;entryDx=0;entryDy=0;entryPerimeter=0;strokeColor=#000000;fontFamily=Times New Roman;fontColor=#000000;startArrow=blockThin;startFill=1;endArrow=blockThin;endFill=1;" parent="1" target="127" edge="1">
          <mxGeometry relative="1" as="geometry">
            <Array as="points">
              <mxPoint x="35.859999999999985" y="1117.3899999999999" />
              <mxPoint x="35.859999999999985" y="1194.3899999999999" />
            </Array>
            <mxPoint x="52.859999999999985" y="1117.3899999999999" as="sourcePoint" />
          </mxGeometry>
        </mxCell>
        <mxCell id="968" value="" style="shape=table;startSize=0;container=1;collapsible=0;childLayout=tableLayout;fontSize=24;" parent="1" vertex="1">
          <mxGeometry x="153.97" y="892.34" width="417" height="30" as="geometry" />
        </mxCell>
        <mxCell id="969" value="" style="shape=tableRow;horizontal=0;startSize=0;swimlaneHead=0;swimlaneBody=0;strokeColor=inherit;top=0;left=0;bottom=0;right=0;collapsible=0;dropTarget=0;fillColor=none;points=[[0,0.5],[1,0.5]];portConstraint=eastwest;fontSize=24;" parent="968" vertex="1">
          <mxGeometry width="417" height="30" as="geometry" />
        </mxCell>
        <mxCell id="970" value="" style="shape=partialRectangle;html=1;whiteSpace=wrap;connectable=0;strokeColor=inherit;overflow=hidden;fillColor=none;top=0;left=0;bottom=0;right=0;pointerEvents=1;fontSize=24;strokeWidth=1;" parent="969" vertex="1">
          <mxGeometry width="140" height="30" as="geometry">
            <mxRectangle width="140" height="30" as="alternateBounds" />
          </mxGeometry>
        </mxCell>
        <mxCell id="971" value="&lt;div style=&quot;text-align: left;&quot;&gt;&lt;br&gt;&lt;/div&gt;" style="shape=partialRectangle;html=1;whiteSpace=wrap;connectable=0;strokeColor=inherit;overflow=hidden;fillColor=none;top=0;left=0;bottom=0;right=0;pointerEvents=1;fontSize=24;" parent="969" vertex="1">
          <mxGeometry x="140" width="191" height="30" as="geometry">
            <mxRectangle width="191" height="30" as="alternateBounds" />
          </mxGeometry>
        </mxCell>
        <mxCell id="972" value="" style="shape=partialRectangle;html=1;whiteSpace=wrap;connectable=0;strokeColor=inherit;overflow=hidden;fillColor=none;top=0;left=0;bottom=0;right=0;pointerEvents=1;fontSize=24;" parent="969" vertex="1">
          <mxGeometry x="331" width="86" height="30" as="geometry">
            <mxRectangle width="86" height="30" as="alternateBounds" />
          </mxGeometry>
        </mxCell>
        <mxCell id="973" value="" style="shape=table;startSize=0;container=1;collapsible=0;childLayout=tableLayout;fontSize=24;" parent="1" vertex="1">
          <mxGeometry x="153.97" y="937.49" width="417" height="30" as="geometry" />
        </mxCell>
        <mxCell id="974" value="" style="shape=tableRow;horizontal=0;startSize=0;swimlaneHead=0;swimlaneBody=0;strokeColor=inherit;top=0;left=0;bottom=0;right=0;collapsible=0;dropTarget=0;fillColor=none;points=[[0,0.5],[1,0.5]];portConstraint=eastwest;fontSize=24;" parent="973" vertex="1">
          <mxGeometry width="417" height="30" as="geometry" />
        </mxCell>
        <mxCell id="975" value="" style="shape=partialRectangle;html=1;whiteSpace=wrap;connectable=0;strokeColor=inherit;overflow=hidden;fillColor=none;top=0;left=0;bottom=0;right=0;pointerEvents=1;fontSize=24;strokeWidth=1;" parent="974" vertex="1">
          <mxGeometry width="140" height="30" as="geometry">
            <mxRectangle width="140" height="30" as="alternateBounds" />
          </mxGeometry>
        </mxCell>
        <mxCell id="976" value="&lt;div style=&quot;text-align: left; font-size: 15px;&quot;&gt;&lt;br&gt;&lt;/div&gt;" style="shape=partialRectangle;html=1;whiteSpace=wrap;connectable=0;strokeColor=inherit;overflow=hidden;fillColor=none;top=0;left=0;bottom=0;right=0;pointerEvents=1;fontSize=24;" parent="974" vertex="1">
          <mxGeometry x="140" width="191" height="30" as="geometry">
            <mxRectangle width="191" height="30" as="alternateBounds" />
          </mxGeometry>
        </mxCell>
        <mxCell id="977" value="" style="shape=partialRectangle;html=1;whiteSpace=wrap;connectable=0;strokeColor=inherit;overflow=hidden;fillColor=none;top=0;left=0;bottom=0;right=0;pointerEvents=1;fontSize=24;" parent="974" vertex="1">
          <mxGeometry x="331" width="86" height="30" as="geometry">
            <mxRectangle width="86" height="30" as="alternateBounds" />
          </mxGeometry>
        </mxCell>
        <mxCell id="978" value="&lt;span style=&quot;color: rgb(0, 0, 0); font-family: &amp;quot;Linux Libertine&amp;quot;; font-style: normal; font-variant-ligatures: normal; font-variant-caps: normal; font-weight: 400; letter-spacing: normal; orphans: 2; text-align: center; text-indent: 0px; text-transform: none; widows: 2; word-spacing: 0px; -webkit-text-stroke-width: 0px; text-decoration-thickness: initial; text-decoration-style: initial; text-decoration-color: initial; float: none; display: inline !important;&quot;&gt;&lt;font style=&quot;font-size: 12px;&quot;&gt;Accumulate&lt;/font&gt;&lt;/span&gt;" style="text;whiteSpace=wrap;html=1;fontSize=12;fontFamily=Linux Libertine;" parent="1" vertex="1">
          <mxGeometry x="360.36" y="868" width="96" height="28" as="geometry" />
        </mxCell>
        <mxCell id="979" value="&lt;span style=&quot;color: rgb(0, 0, 0); font-family: &amp;quot;Linux Libertine&amp;quot;; font-style: normal; font-variant-ligatures: normal; font-variant-caps: normal; font-weight: 400; letter-spacing: normal; orphans: 2; text-align: center; text-indent: 0px; text-transform: none; widows: 2; word-spacing: 0px; -webkit-text-stroke-width: 0px; text-decoration-thickness: initial; text-decoration-style: initial; text-decoration-color: initial; float: none; display: inline !important;&quot;&gt;&lt;font style=&quot;font-size: 12px;&quot;&gt;Write&lt;/font&gt;&lt;/span&gt;" style="text;whiteSpace=wrap;html=1;fontSize=12;fontFamily=Linux Libertine;" parent="1" vertex="1">
          <mxGeometry x="516.97" y="868" width="40.98" height="27" as="geometry" />
        </mxCell>
        <mxCell id="980" value="&lt;span style=&quot;color: rgb(0, 0, 0); font-family: &amp;quot;Linux Libertine&amp;quot;; font-style: normal; font-variant-ligatures: normal; font-variant-caps: normal; font-weight: 400; letter-spacing: normal; orphans: 2; text-align: center; text-indent: 0px; text-transform: none; widows: 2; word-spacing: 0px; -webkit-text-stroke-width: 0px; text-decoration-thickness: initial; text-decoration-style: initial; text-decoration-color: initial; float: none; display: inline !important;&quot;&gt;&lt;font style=&quot;font-size: 12px;&quot;&gt;Read&lt;/font&gt;&lt;/span&gt;" style="text;whiteSpace=wrap;html=1;fontSize=12;fontFamily=Linux Libertine;" parent="1" vertex="1">
          <mxGeometry x="211.97" y="869.51" width="56" height="23.99" as="geometry" />
        </mxCell>
        <mxCell id="981" value="&lt;span style=&quot;color: rgb(0, 0, 0); font-family: &amp;quot;Linux Libertine&amp;quot;; font-size: 14px; font-style: normal; font-variant-ligatures: normal; font-variant-caps: normal; font-weight: 400; letter-spacing: normal; orphans: 2; text-align: center; text-indent: 0px; text-transform: none; widows: 2; word-spacing: 0px; -webkit-text-stroke-width: 0px; text-decoration-thickness: initial; text-decoration-style: initial; text-decoration-color: initial; float: none; display: inline !important;&quot;&gt;thread2&lt;/span&gt;" style="text;whiteSpace=wrap;html=1;fontSize=12;fontFamily=Linux Libertine;" parent="1" vertex="1">
          <mxGeometry x="87" y="893.34" width="72" height="39" as="geometry" />
        </mxCell>
        <mxCell id="982" value="&lt;span style=&quot;color: rgb(0, 0, 0); font-family: &amp;quot;Linux Libertine&amp;quot;; font-size: 14px; font-style: normal; font-variant-ligatures: normal; font-variant-caps: normal; font-weight: 400; letter-spacing: normal; orphans: 2; text-align: center; text-indent: 0px; text-transform: none; widows: 2; word-spacing: 0px; -webkit-text-stroke-width: 0px; text-decoration-thickness: initial; text-decoration-style: initial; text-decoration-color: initial; float: none; display: inline !important;&quot;&gt;thread6&lt;/span&gt;" style="text;whiteSpace=wrap;html=1;fontSize=12;fontFamily=Linux Libertine;" parent="1" vertex="1">
          <mxGeometry x="87" y="938.49" width="72" height="39" as="geometry" />
        </mxCell>
        <mxCell id="988" value="&lt;span style=&quot;font-family: &amp;quot;Linux Libertine&amp;quot;; font-size: 14px; font-variant-ligatures: normal; font-variant-caps: normal; font-weight: 400; letter-spacing: normal; orphans: 2; text-align: center; text-indent: 0px; text-transform: none; widows: 2; word-spacing: 0px; -webkit-text-stroke-width: 0px; text-decoration-thickness: initial; text-decoration-style: initial; text-decoration-color: initial; float: none; display: inline !important;&quot;&gt;&lt;font style=&quot;&quot; color=&quot;#ff0000&quot;&gt;Merge add&amp;nbsp;&lt;/font&gt;&lt;/span&gt;" style="text;whiteSpace=wrap;html=1;fontSize=12;fontFamily=Linux Libertine;" parent="1" vertex="1">
          <mxGeometry x="211.9499999999999" y="982.0700000000004" width="72" height="39" as="geometry" />
        </mxCell>
        <mxCell id="989" value="" style="shape=table;startSize=0;container=1;collapsible=0;childLayout=tableLayout;fontSize=24;" parent="1" vertex="1">
          <mxGeometry x="293.1" y="980.99" width="192.87" height="30" as="geometry" />
        </mxCell>
        <mxCell id="990" value="" style="shape=tableRow;horizontal=0;startSize=0;swimlaneHead=0;swimlaneBody=0;strokeColor=inherit;top=0;left=0;bottom=0;right=0;collapsible=0;dropTarget=0;fillColor=none;points=[[0,0.5],[1,0.5]];portConstraint=eastwest;fontSize=24;" parent="989" vertex="1">
          <mxGeometry width="192.87" height="30" as="geometry" />
        </mxCell>
        <mxCell id="991" value="&lt;div style=&quot;border-color: var(--border-color); text-align: left; font-size: 14px;&quot;&gt;&lt;br&gt;&lt;/div&gt;&lt;span style=&quot;border-color: var(--border-color); text-align: left; font-size: 16px; font-family: &amp;quot;Linux Libertine&amp;quot;; background-color: rgb(218, 232, 252);&quot;&gt;&lt;br style=&quot;border-color: var(--border-color);&quot;&gt;&lt;/span&gt;" style="shape=partialRectangle;html=1;whiteSpace=wrap;connectable=0;strokeColor=inherit;overflow=hidden;fillColor=none;top=0;left=0;bottom=0;right=0;pointerEvents=1;fontSize=24;strokeWidth=1;" parent="990" vertex="1">
          <mxGeometry width="193" height="30" as="geometry">
            <mxRectangle width="193" height="30" as="alternateBounds" />
          </mxGeometry>
        </mxCell>
        <mxCell id="1145" style="edgeStyle=orthogonalEdgeStyle;html=1;entryX=0;entryY=0.5;entryDx=0;entryDy=0;entryPerimeter=0;strokeColor=#0066CC;fontFamily=Linux Libertine;fontSource=https%3A%2F%2Ffonts.googleapis.com%2Fcss%3Ffamily%3DLinux%2BLibertine;endArrow=blockThin;endFill=1;" parent="1" source="1022" target="904" edge="1">
          <mxGeometry relative="1" as="geometry" />
        </mxCell>
        <mxCell id="1022" value="" style="shape=sumEllipse;perimeter=ellipsePerimeter;whiteSpace=wrap;html=1;backgroundOutline=1;labelBackgroundColor=#FFFFCC;fillColor=#FFFFFF;" parent="1" vertex="1">
          <mxGeometry x="300.8599999999999" y="1079.57" width="15" height="15" as="geometry" />
        </mxCell>
        <mxCell id="1257" style="edgeStyle=orthogonalEdgeStyle;html=1;fontSize=14;fontColor=#FF0000;endArrow=none;endFill=0;" parent="1" source="1056" edge="1">
          <mxGeometry relative="1" as="geometry">
            <mxPoint x="35.50333536783856" y="1154.2066890462238" as="targetPoint" />
            <Array as="points">
              <mxPoint x="20.97" y="1247.34" />
              <mxPoint x="20.97" y="1154.34" />
            </Array>
          </mxGeometry>
        </mxCell>
        <mxCell id="1258" style="edgeStyle=orthogonalEdgeStyle;html=1;strokeColor=#000000;fontSize=14;fontColor=#FF0000;endArrow=none;endFill=0;" parent="1" source="1056" edge="1">
          <mxGeometry relative="1" as="geometry">
            <mxPoint x="151.77000813802087" y="1185.9400162760417" as="targetPoint" />
            <Array as="points">
              <mxPoint x="162.97" y="1247.34" />
              <mxPoint x="162.97" y="1186.34" />
            </Array>
          </mxGeometry>
        </mxCell>
        <mxCell id="1056" value="&lt;font color=&quot;#ff0000&quot; data-font-src=&quot;https://fonts.googleapis.com/css?family=Linux+Libertine&quot; face=&quot;Linux Libertine&quot;&gt;Elements in &lt;br&gt;same row&lt;/font&gt;" style="text;html=1;strokeColor=none;fillColor=none;align=center;verticalAlign=middle;whiteSpace=wrap;rounded=0;fontColor=#000000;fontFamily=Times New Roman;" parent="1" vertex="1">
          <mxGeometry x="51.36" y="1232.34" width="84" height="30" as="geometry" />
        </mxCell>
        <mxCell id="1057" value="" style="shape=sumEllipse;perimeter=ellipsePerimeter;whiteSpace=wrap;html=1;backgroundOutline=1;labelBackgroundColor=#FFFFCC;fillColor=#FFFFFF;" parent="1" vertex="1">
          <mxGeometry x="300.8599999999999" y="1128.03" width="15" height="15" as="geometry" />
        </mxCell>
        <mxCell id="1058" value="" style="shape=sumEllipse;perimeter=ellipsePerimeter;whiteSpace=wrap;html=1;backgroundOutline=1;labelBackgroundColor=#FFFFCC;fillColor=#FFFFFF;" parent="1" vertex="1">
          <mxGeometry x="300.8599999999999" y="1103.05" width="15" height="15" as="geometry" />
        </mxCell>
        <mxCell id="1059" value="" style="shape=sumEllipse;perimeter=ellipsePerimeter;whiteSpace=wrap;html=1;backgroundOutline=1;labelBackgroundColor=#FFFFCC;fillColor=#FFFFFF;" parent="1" vertex="1">
          <mxGeometry x="300.8599999999999" y="1154" width="15" height="15" as="geometry" />
        </mxCell>
        <mxCell id="1060" value="" style="shape=sumEllipse;perimeter=ellipsePerimeter;whiteSpace=wrap;html=1;backgroundOutline=1;labelBackgroundColor=#FFFFCC;fillColor=#FFFFFF;" parent="1" vertex="1">
          <mxGeometry x="300.8599999999999" y="1203" width="15" height="15" as="geometry" />
        </mxCell>
        <mxCell id="1144" style="edgeStyle=orthogonalEdgeStyle;html=1;entryX=0;entryY=0.5;entryDx=0;entryDy=0;entryPerimeter=0;fontFamily=Linux Libertine;fontSource=https%3A%2F%2Ffonts.googleapis.com%2Fcss%3Ffamily%3DLinux%2BLibertine;strokeColor=#0066CC;endArrow=blockThin;endFill=1;" parent="1" source="1061" target="907" edge="1">
          <mxGeometry relative="1" as="geometry">
            <Array as="points">
              <mxPoint x="323.86" y="1185.6699999999998" />
              <mxPoint x="323.86" y="1120.6699999999998" />
            </Array>
          </mxGeometry>
        </mxCell>
        <mxCell id="1061" value="" style="shape=sumEllipse;perimeter=ellipsePerimeter;whiteSpace=wrap;html=1;backgroundOutline=1;labelBackgroundColor=#FFFFCC;fillColor=#FFFFFF;" parent="1" vertex="1">
          <mxGeometry x="300.8599999999999" y="1178.02" width="15" height="15" as="geometry" />
        </mxCell>
        <mxCell id="1062" value="" style="shape=sumEllipse;perimeter=ellipsePerimeter;whiteSpace=wrap;html=1;backgroundOutline=1;labelBackgroundColor=#FFFFCC;fillColor=#FFFFFF;" parent="1" vertex="1">
          <mxGeometry x="300.86" y="1031.05" width="15" height="14.98" as="geometry" />
        </mxCell>
        <mxCell id="1063" value="" style="shape=sumEllipse;perimeter=ellipsePerimeter;whiteSpace=wrap;html=1;backgroundOutline=1;labelBackgroundColor=#FFFFCC;fillColor=#FFFFFF;" parent="1" vertex="1">
          <mxGeometry x="300.8599999999999" y="1055.05" width="15" height="15" as="geometry" />
        </mxCell>
        <mxCell id="1064" style="edgeStyle=orthogonalEdgeStyle;html=1;entryX=0;entryY=0.5;entryDx=0;entryDy=0;fontFamily=Linux Libertine;fontSource=https%3A%2F%2Ffonts.googleapis.com%2Fcss%3Ffamily%3DLinux%2BLibertine;rounded=0;endArrow=blockThin;endFill=1;strokeColor=#0066CC;" parent="1" source="C4AZiwXbv_r8diAMs2qV-730" target="1022" edge="1">
          <mxGeometry relative="1" as="geometry">
            <Array as="points">
              <mxPoint x="285.86" y="1115.6699999999998" />
              <mxPoint x="285.86" y="1086.6699999999998" />
            </Array>
          </mxGeometry>
        </mxCell>
        <mxCell id="1065" style="edgeStyle=orthogonalEdgeStyle;rounded=0;html=1;entryX=0;entryY=0.5;entryDx=0;entryDy=0;fontFamily=Linux Libertine;fontSource=https%3A%2F%2Ffonts.googleapis.com%2Fcss%3Ffamily%3DLinux%2BLibertine;endArrow=blockThin;endFill=1;strokeColor=#0066CC;" parent="1" source="C4AZiwXbv_r8diAMs2qV-730" target="1061" edge="1">
          <mxGeometry relative="1" as="geometry">
            <Array as="points">
              <mxPoint x="285.86" y="1115.6699999999998" />
              <mxPoint x="285.86" y="1185.6699999999998" />
            </Array>
          </mxGeometry>
        </mxCell>
        <mxCell id="1109" value="" style="rounded=0;whiteSpace=wrap;html=1;labelBackgroundColor=#CCE5FF;fontFamily=Linux Libertine;fontSource=https%3A%2F%2Ffonts.googleapis.com%2Fcss%3Ffamily%3DLinux%2BLibertine;fillColor=none;" parent="1" vertex="1">
          <mxGeometry x="53.859999999999985" y="1105.3899999999999" width="37" height="19.95" as="geometry" />
        </mxCell>
        <mxCell id="1111" value="" style="rounded=0;whiteSpace=wrap;html=1;labelBackgroundColor=#CCE5FF;fontFamily=Linux Libertine;fontSource=https%3A%2F%2Ffonts.googleapis.com%2Fcss%3Ffamily%3DLinux%2BLibertine;fillColor=none;" parent="1" vertex="1">
          <mxGeometry x="90.85999999999999" y="1105.3899999999999" width="42" height="19.95" as="geometry" />
        </mxCell>
        <mxCell id="1112" value="" style="rounded=0;whiteSpace=wrap;html=1;labelBackgroundColor=#CCE5FF;fontFamily=Linux Libertine;fontSource=https%3A%2F%2Ffonts.googleapis.com%2Fcss%3Ffamily%3DLinux%2BLibertine;fillColor=none;" parent="1" vertex="1">
          <mxGeometry x="53.859999999999985" y="1145.37" width="37" height="19.95" as="geometry" />
        </mxCell>
        <mxCell id="1113" value="" style="rounded=0;whiteSpace=wrap;html=1;labelBackgroundColor=#CCE5FF;fontFamily=Linux Libertine;fontSource=https%3A%2F%2Ffonts.googleapis.com%2Fcss%3Ffamily%3DLinux%2BLibertine;fillColor=none;" parent="1" vertex="1">
          <mxGeometry x="90.85999999999999" y="1145.37" width="42" height="19.95" as="geometry" />
        </mxCell>
        <mxCell id="1114" value="" style="rounded=0;whiteSpace=wrap;html=1;labelBackgroundColor=#CCE5FF;fontFamily=Linux Libertine;fontSource=https%3A%2F%2Ffonts.googleapis.com%2Fcss%3Ffamily%3DLinux%2BLibertine;fillColor=none;" parent="1" vertex="1">
          <mxGeometry x="53.859999999999985" y="1185.34" width="37" height="20" as="geometry" />
        </mxCell>
        <mxCell id="1115" value="" style="rounded=0;whiteSpace=wrap;html=1;labelBackgroundColor=#CCE5FF;fontFamily=Linux Libertine;fontSource=https%3A%2F%2Ffonts.googleapis.com%2Fcss%3Ffamily%3DLinux%2BLibertine;fillColor=none;" parent="1" vertex="1">
          <mxGeometry x="90.85999999999999" y="1185.3899999999999" width="42" height="19.95" as="geometry" />
        </mxCell>
        <mxCell id="1116" value="" style="rounded=0;whiteSpace=wrap;html=1;labelBackgroundColor=#CCE5FF;fontFamily=Linux Libertine;fontSource=https%3A%2F%2Ffonts.googleapis.com%2Fcss%3Ffamily%3DLinux%2BLibertine;fillColor=none;" parent="1" vertex="1">
          <mxGeometry x="53.859999999999985" y="1205.3899999999999" width="37" height="20" as="geometry" />
        </mxCell>
        <mxCell id="1117" value="" style="rounded=0;whiteSpace=wrap;html=1;labelBackgroundColor=#CCE5FF;fontFamily=Linux Libertine;fontSource=https%3A%2F%2Ffonts.googleapis.com%2Fcss%3Ffamily%3DLinux%2BLibertine;fillColor=none;" parent="1" vertex="1">
          <mxGeometry x="90.85999999999999" y="1205.3899999999999" width="42" height="20" as="geometry" />
        </mxCell>
        <mxCell id="1129" value="" style="rounded=1;whiteSpace=wrap;html=1;arcSize=12;fillColor=#FFFFCC;" parent="1" vertex="1">
          <mxGeometry x="336.1600000000001" y="1150.62" width="59.97" height="91" as="geometry" />
        </mxCell>
        <mxCell id="1130" style="edgeStyle=none;html=1;entryX=0.137;entryY=0.15;entryDx=0;entryDy=0;entryPerimeter=0;endArrow=none;endFill=0;exitX=0.934;exitY=0.808;exitDx=0;exitDy=0;exitPerimeter=0;" parent="1" source="1131" target="1134" edge="1">
          <mxGeometry relative="1" as="geometry" />
        </mxCell>
        <mxCell id="1131" value="" style="verticalLabelPosition=bottom;shadow=0;dashed=0;align=center;html=1;verticalAlign=top;shape=mxgraph.electrical.abstract.summation_point;strokeWidth=1;fontColor=#FF0000;" parent="1" vertex="1">
          <mxGeometry x="341.4599999999998" y="1153.62" width="15" height="15" as="geometry" />
        </mxCell>
        <mxCell id="1132" style="edgeStyle=none;html=1;entryX=0.901;entryY=0.236;entryDx=0;entryDy=0;entryPerimeter=0;endArrow=none;endFill=0;exitX=0.08;exitY=0.782;exitDx=0;exitDy=0;exitPerimeter=0;" parent="1" source="1134" target="1135" edge="1">
          <mxGeometry relative="1" as="geometry" />
        </mxCell>
        <mxCell id="1133" style="edgeStyle=none;html=1;endArrow=none;endFill=0;entryX=0.215;entryY=0.1;entryDx=0;entryDy=0;entryPerimeter=0;exitX=0.821;exitY=0.943;exitDx=0;exitDy=0;exitPerimeter=0;" parent="1" source="1134" target="1142" edge="1">
          <mxGeometry relative="1" as="geometry" />
        </mxCell>
        <mxCell id="1134" value="" style="verticalLabelPosition=bottom;shadow=0;dashed=0;align=center;html=1;verticalAlign=top;shape=mxgraph.electrical.abstract.summation_point;strokeWidth=1;fontColor=#FF0000;" parent="1" vertex="1">
          <mxGeometry x="360.3599999999999" y="1168.62" width="15" height="15" as="geometry" />
        </mxCell>
        <mxCell id="1135" value="" style="verticalLabelPosition=bottom;shadow=0;dashed=0;align=center;html=1;verticalAlign=top;shape=mxgraph.electrical.abstract.summation_point;strokeWidth=1;fontColor=#FF0000;" parent="1" vertex="1">
          <mxGeometry x="341.4599999999998" y="1180.62" width="15" height="15" as="geometry" />
        </mxCell>
        <mxCell id="1136" style="edgeStyle=none;html=1;entryX=0.097;entryY=0.23;entryDx=0;entryDy=0;entryPerimeter=0;endArrow=none;endFill=0;exitX=0.928;exitY=0.799;exitDx=0;exitDy=0;exitPerimeter=0;" parent="1" source="1137" target="1141" edge="1">
          <mxGeometry relative="1" as="geometry" />
        </mxCell>
        <mxCell id="1137" value="" style="verticalLabelPosition=bottom;shadow=0;dashed=0;align=center;html=1;verticalAlign=top;shape=mxgraph.electrical.abstract.summation_point;strokeWidth=1;fontColor=#FF0000;" parent="1" vertex="1">
          <mxGeometry x="341.4599999999998" y="1199.6" width="15" height="15" as="geometry" />
        </mxCell>
        <mxCell id="1138" value="" style="verticalLabelPosition=bottom;shadow=0;dashed=0;align=center;html=1;verticalAlign=top;shape=mxgraph.electrical.abstract.summation_point;strokeWidth=1;fontColor=#FF0000;" parent="1" vertex="1">
          <mxGeometry x="341.4599999999998" y="1223.6" width="15" height="15" as="geometry" />
        </mxCell>
        <mxCell id="1139" style="edgeStyle=none;html=1;endArrow=none;endFill=0;exitX=0.072;exitY=0.796;exitDx=0;exitDy=0;exitPerimeter=0;" parent="1" source="1141" edge="1">
          <mxGeometry relative="1" as="geometry">
            <mxPoint x="355.15999999999997" y="1227.9199999999996" as="targetPoint" />
          </mxGeometry>
        </mxCell>
        <mxCell id="1140" style="edgeStyle=none;html=1;endArrow=none;endFill=0;exitX=0.831;exitY=0.136;exitDx=0;exitDy=0;exitPerimeter=0;entryX=0.217;entryY=0.907;entryDx=0;entryDy=0;entryPerimeter=0;" parent="1" source="1141" target="1142" edge="1">
          <mxGeometry relative="1" as="geometry" />
        </mxCell>
        <mxCell id="1141" value="" style="verticalLabelPosition=bottom;shadow=0;dashed=0;align=center;html=1;verticalAlign=top;shape=mxgraph.electrical.abstract.summation_point;strokeWidth=1;fontColor=#FF0000;" parent="1" vertex="1">
          <mxGeometry x="360.3599999999999" y="1211.6" width="15" height="15" as="geometry" />
        </mxCell>
        <mxCell id="1153" style="edgeStyle=orthogonalEdgeStyle;html=1;strokeColor=#FF3333;fontFamily=Linux Libertine;fontSource=https%3A%2F%2Ffonts.googleapis.com%2Fcss%3Ffamily%3DLinux%2BLibertine;endArrow=blockThin;endFill=1;" parent="1" source="1142" edge="1">
          <mxGeometry relative="1" as="geometry">
            <mxPoint x="452.09808942522307" y="1197.4199999999996" as="targetPoint" />
          </mxGeometry>
        </mxCell>
        <mxCell id="1142" value="" style="verticalLabelPosition=bottom;shadow=0;dashed=0;align=center;html=1;verticalAlign=top;shape=mxgraph.electrical.abstract.summation_point;strokeWidth=1;fontColor=#FF0000;" parent="1" vertex="1">
          <mxGeometry x="374.15999999999985" y="1189.9199999999996" width="15" height="15" as="geometry" />
        </mxCell>
        <mxCell id="1143" value="&lt;span style=&quot;&quot;&gt;&lt;span style=&quot;color: rgb(51, 51, 51); font-size: 12px; font-style: normal; font-variant-ligatures: normal; font-variant-caps: normal; font-weight: 400; letter-spacing: normal; orphans: 2; text-align: center; text-indent: 0px; text-transform: none; widows: 2; word-spacing: 0px; -webkit-text-stroke-width: 0px; text-decoration-thickness: initial; text-decoration-style: initial; text-decoration-color: initial; float: none; display: inline !important;&quot;&gt;&lt;font data-font-src=&quot;https://fonts.googleapis.com/css?family=Linux+Libertine&quot; face=&quot;Linux Libertine&quot;&gt;Dyna Adder 2&lt;/font&gt;&lt;/span&gt;&lt;/span&gt;" style="text;whiteSpace=wrap;html=1;labelBackgroundColor=none;" parent="1" vertex="1">
          <mxGeometry x="329.65" y="1125.9699999999998" width="79.7" height="24.65" as="geometry" />
        </mxCell>
        <mxCell id="1146" style="edgeStyle=orthogonalEdgeStyle;html=1;entryX=0;entryY=0.5;entryDx=0;entryDy=0;strokeColor=#FF3333;fontFamily=Linux Libertine;fontSource=https%3A%2F%2Ffonts.googleapis.com%2Fcss%3Ffamily%3DLinux%2BLibertine;endArrow=blockThin;endFill=1;" parent="1" source="C4AZiwXbv_r8diAMs2qV-736" target="1059" edge="1">
          <mxGeometry relative="1" as="geometry" />
        </mxCell>
        <mxCell id="1147" style="edgeStyle=orthogonalEdgeStyle;html=1;entryX=0;entryY=0.5;entryDx=0;entryDy=0;strokeColor=#FF3333;fontFamily=Linux Libertine;fontSource=https%3A%2F%2Ffonts.googleapis.com%2Fcss%3Ffamily%3DLinux%2BLibertine;endArrow=blockThin;endFill=1;" parent="1" source="C4AZiwXbv_r8diAMs2qV-736" target="1060" edge="1">
          <mxGeometry relative="1" as="geometry">
            <Array as="points">
              <mxPoint x="280.86" y="1155.6699999999998" />
              <mxPoint x="280.86" y="1210.6699999999998" />
            </Array>
          </mxGeometry>
        </mxCell>
        <mxCell id="1148" style="edgeStyle=orthogonalEdgeStyle;html=1;entryX=0;entryY=0.5;entryDx=0;entryDy=0;entryPerimeter=0;strokeColor=#FF3333;fontFamily=Linux Libertine;fontSource=https%3A%2F%2Ffonts.googleapis.com%2Fcss%3Ffamily%3DLinux%2BLibertine;endArrow=blockThin;endFill=1;" parent="1" source="1059" target="1137" edge="1">
          <mxGeometry relative="1" as="geometry" />
        </mxCell>
        <mxCell id="1149" style="edgeStyle=orthogonalEdgeStyle;html=1;entryX=0;entryY=0.5;entryDx=0;entryDy=0;entryPerimeter=0;strokeColor=#FF3333;fontFamily=Linux Libertine;fontSource=https%3A%2F%2Ffonts.googleapis.com%2Fcss%3Ffamily%3DLinux%2BLibertine;endArrow=blockThin;endFill=1;" parent="1" source="1060" target="1138" edge="1">
          <mxGeometry relative="1" as="geometry" />
        </mxCell>
        <mxCell id="1152" value="&lt;font style=&quot;&quot; data-font-src=&quot;https://fonts.googleapis.com/css?family=Linux+Libertine&quot; face=&quot;Linux Libertine&quot;&gt;Write back R&lt;span style=&quot;background-color: rgb(204, 229, 255);&quot;&gt;[1]&lt;/span&gt;&lt;/font&gt;" style="text;html=1;strokeColor=none;fillColor=none;align=center;verticalAlign=middle;whiteSpace=wrap;rounded=0;fontColor=#000000;fontFamily=Times New Roman;" parent="1" vertex="1">
          <mxGeometry x="398.86" y="1053.6699999999998" width="80" height="30" as="geometry" />
        </mxCell>
        <mxCell id="1154" value="&lt;font style=&quot;&quot; data-font-src=&quot;https://fonts.googleapis.com/css?family=Linux+Libertine&quot; face=&quot;Linux Libertine&quot;&gt;Write back R&lt;span style=&quot;background-color: rgb(255, 204, 204);&quot;&gt;[7]&lt;/span&gt;&lt;/font&gt;" style="text;html=1;strokeColor=none;fillColor=none;align=center;verticalAlign=middle;whiteSpace=wrap;rounded=0;fontColor=#000000;fontFamily=Times New Roman;" parent="1" vertex="1">
          <mxGeometry x="396.13" y="1168.62" width="80" height="30" as="geometry" />
        </mxCell>
        <mxCell id="1250" value="&lt;span style=&quot;border-color: var(--border-color); color: rgb(0, 0, 0); font-size: 14px; font-style: normal; font-variant-ligatures: normal; font-variant-caps: normal; font-weight: 400; letter-spacing: normal; orphans: 2; text-align: left; text-indent: 0px; text-transform: none; widows: 2; word-spacing: 0px; -webkit-text-stroke-width: 0px; background-color: initial; text-decoration-thickness: initial; text-decoration-style: initial; text-decoration-color: initial; font-family: &amp;quot;Linux Libertine&amp;quot;;&quot;&gt;R&lt;/span&gt;&lt;span style=&quot;border-color: var(--border-color); color: rgb(0, 0, 0); font-size: 14px; font-style: normal; font-variant-ligatures: normal; font-variant-caps: normal; font-weight: 400; letter-spacing: normal; orphans: 2; text-align: left; text-indent: 0px; text-transform: none; widows: 2; word-spacing: 0px; -webkit-text-stroke-width: 0px; text-decoration-thickness: initial; text-decoration-style: initial; text-decoration-color: initial; font-family: &amp;quot;Linux Libertine&amp;quot;; background-color: rgb(204, 229, 255);&quot;&gt;[1]&lt;/span&gt;&lt;span style=&quot;border-color: var(--border-color); color: rgb(0, 0, 0); font-size: 14px; font-style: normal; font-variant-ligatures: normal; font-variant-caps: normal; font-weight: 400; letter-spacing: normal; orphans: 2; text-align: left; text-indent: 0px; text-transform: none; widows: 2; word-spacing: 0px; -webkit-text-stroke-width: 0px; background-color: initial; text-decoration-thickness: initial; text-decoration-style: initial; text-decoration-color: initial; font-family: &amp;quot;Linux Libertine&amp;quot;;&quot;&gt;&amp;nbsp;+= V[1] *&amp;nbsp;&lt;/span&gt;&lt;span style=&quot;border-color: var(--border-color); color: rgb(0, 0, 0); font-size: 14px; font-style: normal; font-variant-ligatures: normal; font-variant-caps: normal; font-weight: 400; letter-spacing: normal; orphans: 2; text-align: left; text-indent: 0px; text-transform: none; widows: 2; word-spacing: 0px; -webkit-text-stroke-width: 0px; text-decoration-thickness: initial; text-decoration-style: initial; text-decoration-color: initial; font-family: &amp;quot;Linux Libertine&amp;quot;; background-color: rgb(204, 229, 255);&quot;&gt;3&lt;/span&gt;&lt;span style=&quot;border-color: var(--border-color); color: rgb(0, 0, 0); font-size: 14px; font-style: normal; font-variant-ligatures: normal; font-variant-caps: normal; font-weight: 400; letter-spacing: normal; orphans: 2; text-align: left; text-indent: 0px; text-transform: none; widows: 2; word-spacing: 0px; -webkit-text-stroke-width: 0px; background-color: initial; text-decoration-thickness: initial; text-decoration-style: initial; text-decoration-color: initial; font-family: &amp;quot;Linux Libertine&amp;quot;;&quot;&gt;&amp;nbsp;+ V&lt;/span&gt;&lt;span style=&quot;border-color: var(--border-color); color: rgb(0, 0, 0); font-size: 14px; font-style: normal; font-variant-ligatures: normal; font-variant-caps: normal; font-weight: 400; letter-spacing: normal; orphans: 2; text-align: left; text-indent: 0px; text-transform: none; widows: 2; word-spacing: 0px; -webkit-text-stroke-width: 0px; background-color: rgb(251, 251, 251); text-decoration-thickness: initial; text-decoration-style: initial; text-decoration-color: initial; font-family: &amp;quot;Linux Libertine&amp;quot;;&quot;&gt;[3]&lt;/span&gt;&lt;span style=&quot;border-color: var(--border-color); color: rgb(0, 0, 0); font-size: 14px; font-style: normal; font-variant-ligatures: normal; font-variant-caps: normal; font-weight: 400; letter-spacing: normal; orphans: 2; text-align: left; text-indent: 0px; text-transform: none; widows: 2; word-spacing: 0px; -webkit-text-stroke-width: 0px; background-color: initial; text-decoration-thickness: initial; text-decoration-style: initial; text-decoration-color: initial; font-family: &amp;quot;Linux Libertine&amp;quot;;&quot;&gt;&amp;nbsp;*&amp;nbsp;&lt;/span&gt;&lt;span style=&quot;border-color: var(--border-color); color: rgb(0, 0, 0); font-size: 14px; font-style: normal; font-variant-ligatures: normal; font-variant-caps: normal; font-weight: 400; letter-spacing: normal; orphans: 2; text-align: left; text-indent: 0px; text-transform: none; widows: 2; word-spacing: 0px; -webkit-text-stroke-width: 0px; text-decoration-thickness: initial; text-decoration-style: initial; text-decoration-color: initial; font-family: &amp;quot;Linux Libertine&amp;quot;; background-color: rgb(218, 232, 252);&quot;&gt;29&lt;/span&gt;" style="text;whiteSpace=wrap;html=1;fontSize=14;" parent="1" vertex="1">
          <mxGeometry x="306.53665649414063" y="980.9866768391928" width="185" height="39" as="geometry" />
        </mxCell>
        <mxCell id="1251" value="&lt;font style=&quot;font-size: 14px;&quot;&gt;&lt;span style=&quot;border-color: var(--border-color); color: rgb(0, 0, 0); font-style: normal; font-variant-ligatures: normal; font-variant-caps: normal; font-weight: 400; letter-spacing: normal; orphans: 2; text-align: left; text-indent: 0px; text-transform: none; widows: 2; word-spacing: 0px; -webkit-text-stroke-width: 0px; background-color: initial; text-decoration-thickness: initial; text-decoration-style: initial; text-decoration-color: initial; font-family: &amp;quot;Linux Libertine&amp;quot;;&quot;&gt;R&lt;/span&gt;&lt;span style=&quot;border-color: var(--border-color); color: rgb(0, 0, 0); font-style: normal; font-variant-ligatures: normal; font-variant-caps: normal; font-weight: 400; letter-spacing: normal; orphans: 2; text-align: left; text-indent: 0px; text-transform: none; widows: 2; word-spacing: 0px; -webkit-text-stroke-width: 0px; text-decoration-thickness: initial; text-decoration-style: initial; text-decoration-color: initial; font-family: &amp;quot;Linux Libertine&amp;quot;; background-color: rgb(204, 229, 255);&quot;&gt;[1]&lt;/span&gt;&lt;span style=&quot;border-color: var(--border-color); color: rgb(0, 0, 0); font-style: normal; font-variant-ligatures: normal; font-variant-caps: normal; font-weight: 400; letter-spacing: normal; orphans: 2; text-align: left; text-indent: 0px; text-transform: none; widows: 2; word-spacing: 0px; -webkit-text-stroke-width: 0px; background-color: initial; text-decoration-thickness: initial; text-decoration-style: initial; text-decoration-color: initial; font-family: &amp;quot;Linux Libertine&amp;quot;;&quot;&gt;&lt;span&gt;&amp;nbsp;&lt;/span&gt;+= V&lt;/span&gt;&lt;span style=&quot;border-color: var(--border-color); color: rgb(0, 0, 0); font-style: normal; font-variant-ligatures: normal; font-variant-caps: normal; font-weight: 400; letter-spacing: normal; orphans: 2; text-align: left; text-indent: 0px; text-transform: none; widows: 2; word-spacing: 0px; -webkit-text-stroke-width: 0px; background-color: rgb(251, 251, 251); text-decoration-thickness: initial; text-decoration-style: initial; text-decoration-color: initial; font-family: &amp;quot;Linux Libertine&amp;quot;;&quot;&gt;[3]&lt;/span&gt;&lt;span style=&quot;border-color: var(--border-color); color: rgb(0, 0, 0); font-style: normal; font-variant-ligatures: normal; font-variant-caps: normal; font-weight: 400; letter-spacing: normal; orphans: 2; text-align: left; text-indent: 0px; text-transform: none; widows: 2; word-spacing: 0px; -webkit-text-stroke-width: 0px; background-color: initial; text-decoration-thickness: initial; text-decoration-style: initial; text-decoration-color: initial; font-family: &amp;quot;Linux Libertine&amp;quot;;&quot;&gt;&lt;span&gt;&amp;nbsp;&lt;/span&gt;*&lt;span&gt;&amp;nbsp;&lt;/span&gt;&lt;/span&gt;&lt;span style=&quot;border-color: var(--border-color); color: rgb(0, 0, 0); font-style: normal; font-variant-ligatures: normal; font-variant-caps: normal; font-weight: 400; letter-spacing: normal; orphans: 2; text-align: left; text-indent: 0px; text-transform: none; widows: 2; word-spacing: 0px; -webkit-text-stroke-width: 0px; text-decoration-thickness: initial; text-decoration-style: initial; text-decoration-color: initial; font-family: &amp;quot;Linux Libertine&amp;quot;; background-color: rgb(218, 232, 252);&quot;&gt;29&lt;/span&gt;&lt;/font&gt;" style="text;whiteSpace=wrap;html=1;fontSize=15;" parent="1" vertex="1">
          <mxGeometry x="336.15999999999997" y="936.99" width="114.81" height="29.35" as="geometry" />
        </mxCell>
        <mxCell id="1252" value="&lt;span style=&quot;color: rgb(0, 0, 0); font-family: &amp;quot;Linux Libertine&amp;quot;; font-style: normal; font-variant-ligatures: normal; font-variant-caps: normal; font-weight: 400; letter-spacing: normal; orphans: 2; text-align: center; text-indent: 0px; text-transform: none; widows: 2; word-spacing: 0px; -webkit-text-stroke-width: 0px; background-color: rgb(251, 251, 251); text-decoration-thickness: initial; text-decoration-style: initial; text-decoration-color: initial; float: none; display: inline !important;&quot;&gt;&lt;font style=&quot;font-size: 14px;&quot;&gt;R[3]&lt;/font&gt;&lt;/span&gt;" style="text;whiteSpace=wrap;html=1;fontSize=14;" parent="1" vertex="1">
          <mxGeometry x="514.969979654948" y="937.4933129882813" width="56" height="41" as="geometry" />
        </mxCell>
        <mxCell id="1253" value="&lt;span style=&quot;color: rgb(0, 0, 0); font-family: &amp;quot;Linux Libertine&amp;quot;; font-style: normal; font-variant-ligatures: normal; font-variant-caps: normal; font-weight: 400; letter-spacing: normal; orphans: 2; text-align: center; text-indent: 0px; text-transform: none; widows: 2; word-spacing: 0px; -webkit-text-stroke-width: 0px; background-color: rgb(251, 251, 251); text-decoration-thickness: initial; text-decoration-style: initial; text-decoration-color: initial; float: none; display: inline !important;&quot;&gt;&lt;font style=&quot;font-size: 14px;&quot;&gt;R[40]&lt;/font&gt;&lt;/span&gt;" style="text;whiteSpace=wrap;html=1;fontSize=14;" parent="1" vertex="1">
          <mxGeometry x="510.97" y="891.99" width="39" height="27.35" as="geometry" />
        </mxCell>
        <mxCell id="1254" value="&lt;font style=&quot;font-size: 14px;&quot;&gt;&lt;span style=&quot;border-color: var(--border-color); color: rgb(0, 0, 0); font-style: normal; font-variant-ligatures: normal; font-variant-caps: normal; font-weight: 400; letter-spacing: normal; orphans: 2; text-align: left; text-indent: 0px; text-transform: none; widows: 2; word-spacing: 0px; -webkit-text-stroke-width: 0px; background-color: initial; text-decoration-thickness: initial; text-decoration-style: initial; text-decoration-color: initial; font-family: &amp;quot;Linux Libertine&amp;quot;;&quot;&gt;R&lt;/span&gt;&lt;span style=&quot;border-color: var(--border-color); color: rgb(0, 0, 0); font-style: normal; font-variant-ligatures: normal; font-variant-caps: normal; font-weight: 400; letter-spacing: normal; orphans: 2; text-align: left; text-indent: 0px; text-transform: none; widows: 2; word-spacing: 0px; -webkit-text-stroke-width: 0px; text-decoration-thickness: initial; text-decoration-style: initial; text-decoration-color: initial; font-family: &amp;quot;Linux Libertine&amp;quot;; background-color: rgb(204, 229, 255);&quot;&gt;[1]&lt;/span&gt;&lt;span style=&quot;border-color: var(--border-color); color: rgb(0, 0, 0); font-style: normal; font-variant-ligatures: normal; font-variant-caps: normal; font-weight: 400; letter-spacing: normal; orphans: 2; text-align: left; text-indent: 0px; text-transform: none; widows: 2; word-spacing: 0px; -webkit-text-stroke-width: 0px; background-color: initial; text-decoration-thickness: initial; text-decoration-style: initial; text-decoration-color: initial; font-family: &amp;quot;Linux Libertine&amp;quot;;&quot;&gt;&lt;span&gt;&amp;nbsp;&lt;/span&gt;+= V&lt;/span&gt;&lt;span style=&quot;border-color: var(--border-color); color: rgb(0, 0, 0); font-style: normal; font-variant-ligatures: normal; font-variant-caps: normal; font-weight: 400; letter-spacing: normal; orphans: 2; text-align: left; text-indent: 0px; text-transform: none; widows: 2; word-spacing: 0px; -webkit-text-stroke-width: 0px; background-color: rgb(251, 251, 251); text-decoration-thickness: initial; text-decoration-style: initial; text-decoration-color: initial; font-family: &amp;quot;Linux Libertine&amp;quot;;&quot;&gt;[1]&lt;/span&gt;&lt;span style=&quot;border-color: var(--border-color); color: rgb(0, 0, 0); font-style: normal; font-variant-ligatures: normal; font-variant-caps: normal; font-weight: 400; letter-spacing: normal; orphans: 2; text-align: left; text-indent: 0px; text-transform: none; widows: 2; word-spacing: 0px; -webkit-text-stroke-width: 0px; background-color: initial; text-decoration-thickness: initial; text-decoration-style: initial; text-decoration-color: initial; font-family: &amp;quot;Linux Libertine&amp;quot;;&quot;&gt;&lt;span&gt;&amp;nbsp;&lt;/span&gt;*&lt;span&gt;&amp;nbsp;&lt;/span&gt;&lt;/span&gt;&lt;span style=&quot;border-color: var(--border-color); color: rgb(0, 0, 0); font-style: normal; font-variant-ligatures: normal; font-variant-caps: normal; font-weight: 400; letter-spacing: normal; orphans: 2; text-align: left; text-indent: 0px; text-transform: none; widows: 2; word-spacing: 0px; -webkit-text-stroke-width: 0px; text-decoration-thickness: initial; text-decoration-style: initial; text-decoration-color: initial; font-family: &amp;quot;Linux Libertine&amp;quot;; background-color: rgb(218, 232, 252);&quot;&gt;3&lt;/span&gt;&lt;span style=&quot;border-color: var(--border-color); color: rgb(0, 0, 0); font-style: normal; font-variant-ligatures: normal; font-variant-caps: normal; font-weight: 400; letter-spacing: normal; orphans: 2; text-align: left; text-indent: 0px; text-transform: none; widows: 2; word-spacing: 0px; -webkit-text-stroke-width: 0px; background-color: initial; text-decoration-thickness: initial; text-decoration-style: initial; text-decoration-color: initial; font-family: &amp;quot;Linux Libertine&amp;quot;;&quot;&gt;&amp;nbsp;&lt;/span&gt;&lt;/font&gt;" style="text;whiteSpace=wrap;html=1;fontSize=14;" parent="1" vertex="1">
          <mxGeometry x="342.86" y="895.34" width="107.11" height="31" as="geometry" />
        </mxCell>
        <mxCell id="1255" value="&lt;span style=&quot;color: rgb(0, 0, 0); font-family: &amp;quot;Linux Libertine&amp;quot;; font-style: normal; font-variant-ligatures: normal; font-variant-caps: normal; font-weight: 400; letter-spacing: normal; orphans: 2; text-align: center; text-indent: 0px; text-transform: none; widows: 2; word-spacing: 0px; -webkit-text-stroke-width: 0px; background-color: rgb(251, 251, 251); text-decoration-thickness: initial; text-decoration-style: initial; text-decoration-color: initial; float: none; display: inline !important;&quot;&gt;&lt;font style=&quot;font-size: 14px;&quot;&gt;R[19]&lt;/font&gt;&lt;/span&gt;" style="text;whiteSpace=wrap;html=1;fontSize=14;" parent="1" vertex="1">
          <mxGeometry x="207.969979654948" y="892.3366463216147" width="64" height="41" as="geometry" />
        </mxCell>
        <mxCell id="1256" value="&lt;span style=&quot;color: rgb(0, 0, 0); font-family: &amp;quot;Linux Libertine&amp;quot;; font-style: normal; font-variant-ligatures: normal; font-variant-caps: normal; font-weight: 400; letter-spacing: normal; orphans: 2; text-align: center; text-indent: 0px; text-transform: none; widows: 2; word-spacing: 0px; -webkit-text-stroke-width: 0px; background-color: rgb(251, 251, 251); text-decoration-thickness: initial; text-decoration-style: initial; text-decoration-color: initial; float: none; display: inline !important;&quot;&gt;&lt;font style=&quot;font-size: 14px;&quot;&gt;R[8]&lt;/font&gt;&lt;/span&gt;" style="text;whiteSpace=wrap;html=1;fontSize=14;" parent="1" vertex="1">
          <mxGeometry x="211.95331298828123" y="938.4933129882812" width="56" height="41" as="geometry" />
        </mxCell>
      </root>
    </mxGraphModel>
  </diagram>
</mxfile>
